<svg width="88" height="83" viewBox="0 0 88 83" fill="none" xmlns="http://www.w3.org/2000/svg">
<path d="M82.1647 23.1106C80.7667 10.753 69.8152 1.84619 57.7057 3.21611C50.3542 4.04777 44.2861 8.48436 40.9461 14.5942C36.3257 9.38491 29.4198 6.41604 22.0705 7.24745C9.95878 8.61762 1.27351 19.7436 2.67176 32.1035C2.86978 33.8539 3.27944 35.5253 3.83774 37.1179C9.06602 56.0762 32.4042 74.0605 48.113 77.9465C62.5546 70.6497 81.2875 47.9059 82.1442 28.2615C82.3371 26.584 82.363 24.8633 82.1647 23.1106V23.1106Z" fill="#DD2E44"/>
<path d="M81.8405 50.8449L72.9791 48.5955L68.8514 40.2808C68.4281 39.4239 67.528 38.9287 66.5991 39.0338C65.6701 39.1388 64.9034 39.8227 64.682 40.7502L62.5161 49.7769L54.3811 53.949C53.5447 54.3743 53.063 55.29 53.1705 56.24C53.2777 57.1878 53.954 57.9725 54.8623 58.2027L63.7237 60.452L67.8515 68.7667C68.2745 69.6214 69.1746 70.1166 70.1035 70.0115C71.0325 69.9065 71.7989 69.2204 72.0206 68.2951L74.1865 59.2684L82.3215 55.0963C83.1554 54.669 83.6393 53.7531 83.5321 52.8053C83.4248 51.8575 82.7486 51.0728 81.8405 50.8449V50.8449ZM26.6224 20.3459L21.1421 18.9565L18.5909 13.814C18.1656 12.9596 17.2678 12.4641 16.3389 12.5692C15.4077 12.6745 14.6432 13.3581 14.4218 14.2856L13.0817 19.8684L8.05254 22.4467C7.21661 22.8766 6.73474 23.7899 6.84196 24.7377C6.94918 25.6855 7.62292 26.4682 8.53375 26.7004L14.014 28.0898L16.5652 33.2324C16.9905 34.0868 17.8883 34.5823 18.8173 34.4772C19.7462 34.3721 20.5107 33.6885 20.7343 32.7607L22.0722 27.1782L27.1036 24.5996C27.9395 24.1698 28.4216 23.2587 28.3142 22.3086C28.2069 21.3608 27.5332 20.5782 26.6224 20.3459V20.3459Z" fill="#FDCB58"/>
</svg>
