<svg width="480" height="480" viewBox="0 0 480 480" fill="none" xmlns="http://www.w3.org/2000/svg">
<rect width="480" height="480" fill="#FFDBE8"/>
<g clip-path="url(#clip0_0_1)">
<path d="M276.253 226.421C256.171 206.338 223.497 206.338 203.414 226.421L190 239.833L203.747 253.58C213.787 263.62 226.976 268.642 240.167 268.642C253.358 268.642 266.546 263.622 276.588 253.58L290.002 240.166L276.253 226.421ZM274.198 251.191C255.432 269.954 224.9 269.954 206.135 251.191L194.777 239.833L205.802 228.808C224.568 210.044 255.1 210.044 273.865 228.808L285.223 240.166L274.198 251.191Z" fill="white"/>
<path d="M238.264 226.436C231.743 226.436 226.439 231.74 226.439 238.26C226.439 239.193 227.196 239.95 228.128 239.95C229.061 239.95 229.818 239.193 229.818 238.26C229.818 233.603 233.606 229.814 238.264 229.814C239.196 229.814 239.953 229.058 239.953 228.125C239.953 227.193 239.198 226.436 238.264 226.436Z" fill="white"/>
<path d="M239.953 217.99C227.845 217.99 217.993 227.841 217.993 239.949C217.993 252.058 227.845 261.909 239.953 261.909C252.061 261.909 261.912 252.058 261.912 239.949C261.912 227.841 252.062 217.99 239.953 217.99ZM239.953 258.531C229.708 258.531 221.372 250.194 221.372 239.949C221.372 229.705 229.708 221.368 239.953 221.368C250.198 221.368 258.534 229.705 258.534 239.949C258.534 250.194 250.199 258.531 239.953 258.531Z" fill="white"/>
</g>
<defs>
<clipPath id="clip0_0_1">
<rect width="100" height="100" fill="white" transform="translate(190 190)"/>
</clipPath>
</defs>
</svg>
