<svg width="519" height="174" viewBox="0 0 519 174" fill="none" xmlns="http://www.w3.org/2000/svg">
<rect x="0.00195312" y="31.9269" width="518.998" height="3.99746" fill="#C4C4C4"/>
<rect width="407.451" height="3.99746" transform="matrix(0.999999 -0.00101055 0.0010681 0.999999 0 32.1704)" fill="#C91777"/>
<path d="M9.91852 5.46472V6.69128H3.76227V5.46472H9.91852ZM3.99664 0.574097V11.9491H2.48883V0.574097H3.99664ZM11.231 0.574097V11.9491H9.73102V0.574097H11.231ZM17.8795 0.574097V11.9491H16.3951V0.574097H17.8795ZM21.5357 0.574097V1.80847H12.7466V0.574097H21.5357ZM23.6998 0.574097H25.1607L28.8873 9.84753L32.606 0.574097H34.0748L29.4498 11.9491H28.3091L23.6998 0.574097ZM23.2232 0.574097H24.5123L24.7232 7.5116V11.9491H23.2232V0.574097ZM33.2545 0.574097H34.5435V11.9491H33.0435V7.5116L33.2545 0.574097ZM44.0904 10.7225V11.9491H38.4029V10.7225H44.0904ZM38.6998 0.574097V11.9491H37.192V0.574097H38.6998Z" fill="#727272"/>
<rect x="0.00195312" y="100.883" width="518.998" height="3.99746" fill="#C4C4C4"/>
<rect x="0.00195312" y="100.883" width="408.201" height="3.99746" fill="#C91777"/>
<path d="M9.35602 77.2881H10.856C10.7779 78.0068 10.5722 78.6501 10.2388 79.2178C9.9055 79.7855 9.43414 80.236 8.82477 80.5693C8.21539 80.8975 7.45498 81.0615 6.54352 81.0615C5.87685 81.0615 5.27008 80.9365 4.72321 80.6865C4.18154 80.4365 3.71539 80.0824 3.32477 79.624C2.93414 79.1605 2.63206 78.6058 2.41852 77.96C2.21018 77.3089 2.10602 76.585 2.10602 75.7881V74.6553C2.10602 73.8584 2.21018 73.137 2.41852 72.4912C2.63206 71.8402 2.93675 71.2829 3.33258 70.8193C3.73362 70.3558 4.21539 69.999 4.77789 69.749C5.34039 69.499 5.97321 69.374 6.67633 69.374C7.53571 69.374 8.26227 69.5355 8.85602 69.8584C9.44977 70.1813 9.91071 70.6292 10.2388 71.2021C10.5722 71.7699 10.7779 72.4287 10.856 73.1787H9.35602C9.2831 72.6475 9.14768 72.1917 8.94977 71.8115C8.75185 71.4261 8.4706 71.1292 8.10602 70.9209C7.74143 70.7126 7.26487 70.6084 6.67633 70.6084C6.17112 70.6084 5.72581 70.7048 5.34039 70.8975C4.96018 71.0902 4.63987 71.3636 4.37946 71.7178C4.12425 72.0719 3.93154 72.4964 3.80133 72.9912C3.67112 73.486 3.60602 74.0355 3.60602 74.6396V75.7881C3.60602 76.3454 3.66331 76.8688 3.77789 77.3584C3.89768 77.848 4.07737 78.2777 4.31696 78.6475C4.55654 79.0173 4.86123 79.3089 5.23102 79.5225C5.60081 79.7308 6.03831 79.835 6.54352 79.835C7.18414 79.835 7.69456 79.7334 8.07477 79.5303C8.45498 79.3271 8.74143 79.0355 8.93414 78.6553C9.13206 78.2751 9.27268 77.8193 9.35602 77.2881ZM18.9732 78.0303C18.9732 77.7646 18.9315 77.5303 18.8482 77.3271C18.7701 77.1188 18.6295 76.9313 18.4263 76.7646C18.2284 76.598 17.9524 76.4391 17.5982 76.2881C17.2492 76.137 16.8065 75.9834 16.2701 75.8271C15.7076 75.6605 15.1998 75.4756 14.7466 75.2725C14.2935 75.0641 13.9055 74.8271 13.5826 74.5615C13.2597 74.2959 13.0123 73.9912 12.8404 73.6475C12.6685 73.3037 12.5826 72.9105 12.5826 72.4678C12.5826 72.0251 12.6737 71.6162 12.856 71.2412C13.0383 70.8662 13.2987 70.5407 13.6373 70.2646C13.981 69.9834 14.3899 69.7646 14.8638 69.6084C15.3378 69.4521 15.8664 69.374 16.4498 69.374C17.3039 69.374 18.0279 69.5381 18.6216 69.8662C19.2206 70.1891 19.6763 70.6136 19.9888 71.1396C20.3013 71.6605 20.4576 72.2178 20.4576 72.8115H18.9576C18.9576 72.3844 18.8664 72.0068 18.6841 71.6787C18.5019 71.3454 18.2258 71.085 17.856 70.8975C17.4862 70.7048 17.0175 70.6084 16.4498 70.6084C15.9133 70.6084 15.4706 70.6891 15.1216 70.8506C14.7727 71.012 14.5123 71.2308 14.3404 71.5068C14.1737 71.7829 14.0904 72.098 14.0904 72.4521C14.0904 72.6917 14.1399 72.9105 14.2388 73.1084C14.343 73.3011 14.5019 73.4808 14.7154 73.6475C14.9341 73.8141 15.2102 73.9678 15.5435 74.1084C15.8821 74.249 16.2857 74.3844 16.7545 74.5146C17.4003 74.6969 17.9576 74.9001 18.4263 75.124C18.8951 75.348 19.2805 75.6006 19.5826 75.8818C19.8899 76.1579 20.1164 76.473 20.2623 76.8271C20.4133 77.1761 20.4888 77.5719 20.4888 78.0146C20.4888 78.4782 20.3951 78.8975 20.2076 79.2725C20.0201 79.6475 19.7519 79.9678 19.4029 80.2334C19.0539 80.499 18.6347 80.7048 18.1451 80.8506C17.6607 80.9912 17.119 81.0615 16.5201 81.0615C15.994 81.0615 15.4758 80.9886 14.9654 80.8428C14.4602 80.6969 13.9992 80.4782 13.5826 80.1865C13.1711 79.8949 12.8404 79.5355 12.5904 79.1084C12.3456 78.6761 12.2232 78.1761 12.2232 77.6084H13.7232C13.7232 77.999 13.7987 78.335 13.9498 78.6162C14.1008 78.8923 14.3065 79.1214 14.567 79.3037C14.8326 79.486 15.1321 79.6214 15.4654 79.71C15.8039 79.7933 16.1555 79.835 16.5201 79.835C17.0461 79.835 17.4914 79.762 17.856 79.6162C18.2206 79.4704 18.4966 79.262 18.6841 78.9912C18.8769 78.7204 18.9732 78.4001 18.9732 78.0303ZM28.4732 78.0303C28.4732 77.7646 28.4315 77.5303 28.3482 77.3271C28.2701 77.1188 28.1295 76.9313 27.9263 76.7646C27.7284 76.598 27.4524 76.4391 27.0982 76.2881C26.7492 76.137 26.3065 75.9834 25.7701 75.8271C25.2076 75.6605 24.6998 75.4756 24.2466 75.2725C23.7935 75.0641 23.4055 74.8271 23.0826 74.5615C22.7597 74.2959 22.5123 73.9912 22.3404 73.6475C22.1685 73.3037 22.0826 72.9105 22.0826 72.4678C22.0826 72.0251 22.1737 71.6162 22.356 71.2412C22.5383 70.8662 22.7987 70.5407 23.1373 70.2646C23.481 69.9834 23.8899 69.7646 24.3638 69.6084C24.8378 69.4521 25.3664 69.374 25.9498 69.374C26.8039 69.374 27.5279 69.5381 28.1216 69.8662C28.7206 70.1891 29.1763 70.6136 29.4888 71.1396C29.8013 71.6605 29.9576 72.2178 29.9576 72.8115H28.4576C28.4576 72.3844 28.3664 72.0068 28.1841 71.6787C28.0019 71.3454 27.7258 71.085 27.356 70.8975C26.9862 70.7048 26.5175 70.6084 25.9498 70.6084C25.4133 70.6084 24.9706 70.6891 24.6216 70.8506C24.2727 71.012 24.0123 71.2308 23.8404 71.5068C23.6737 71.7829 23.5904 72.098 23.5904 72.4521C23.5904 72.6917 23.6399 72.9105 23.7388 73.1084C23.843 73.3011 24.0019 73.4808 24.2154 73.6475C24.4341 73.8141 24.7102 73.9678 25.0435 74.1084C25.3821 74.249 25.7857 74.3844 26.2545 74.5146C26.9003 74.6969 27.4576 74.9001 27.9263 75.124C28.3951 75.348 28.7805 75.6006 29.0826 75.8818C29.3899 76.1579 29.6164 76.473 29.7623 76.8271C29.9133 77.1761 29.9888 77.5719 29.9888 78.0146C29.9888 78.4782 29.8951 78.8975 29.7076 79.2725C29.5201 79.6475 29.2519 79.9678 28.9029 80.2334C28.5539 80.499 28.1347 80.7048 27.6451 80.8506C27.1607 80.9912 26.619 81.0615 26.0201 81.0615C25.494 81.0615 24.9758 80.9886 24.4654 80.8428C23.9602 80.6969 23.4992 80.4782 23.0826 80.1865C22.6711 79.8949 22.3404 79.5355 22.0904 79.1084C21.8456 78.6761 21.7232 78.1761 21.7232 77.6084H23.2232C23.2232 77.999 23.2987 78.335 23.4498 78.6162C23.6008 78.8923 23.8065 79.1214 24.067 79.3037C24.3326 79.486 24.6321 79.6214 24.9654 79.71C25.3039 79.7933 25.6555 79.835 26.0201 79.835C26.5461 79.835 26.9914 79.762 27.356 79.6162C27.7206 79.4704 27.9966 79.262 28.1841 78.9912C28.3769 78.7204 28.4732 78.4001 28.4732 78.0303Z" fill="#727272"/>
<rect x="0.00195312" y="169.839" width="518.998" height="3.99746" fill="#C4C4C4"/>
<rect x="0.00195312" y="169.839" width="408.201" height="3.99746" fill="#C91777"/>
<path d="M7.26227 146.541V138.486H8.76227V146.541C8.76227 147.291 8.60862 147.924 8.30133 148.44C7.99404 148.955 7.56956 149.348 7.02789 149.619C6.49143 149.885 5.87425 150.018 5.17633 150.018C4.47841 150.018 3.85862 149.898 3.31696 149.658C2.77529 149.419 2.35081 149.054 2.04352 148.565C1.73623 148.075 1.58258 147.458 1.58258 146.713H3.09039C3.09039 147.192 3.17893 147.585 3.35602 147.893C3.5331 148.2 3.77789 148.426 4.09039 148.572C4.4081 148.718 4.77008 148.791 5.17633 148.791C5.57216 148.791 5.92633 148.708 6.23883 148.541C6.55654 148.369 6.80654 148.117 6.98883 147.783C7.17112 147.445 7.26227 147.031 7.26227 146.541ZM16.0826 148.416V144.065C16.0826 143.731 16.0149 143.442 15.8795 143.197C15.7492 142.947 15.5513 142.755 15.2857 142.619C15.0201 142.484 14.692 142.416 14.3013 142.416C13.9367 142.416 13.6164 142.479 13.3404 142.604C13.0696 142.729 12.856 142.893 12.6998 143.096C12.5487 143.299 12.4732 143.518 12.4732 143.752H11.0279C11.0279 143.45 11.106 143.15 11.2623 142.854C11.4185 142.557 11.6425 142.288 11.9341 142.049C12.231 141.804 12.5852 141.611 12.9966 141.471C13.4133 141.325 13.8769 141.252 14.3873 141.252C15.0019 141.252 15.5435 141.356 16.0123 141.565C16.4862 141.773 16.856 142.088 17.1216 142.51C17.3925 142.926 17.5279 143.45 17.5279 144.08V148.018C17.5279 148.299 17.5513 148.598 17.5982 148.916C17.6503 149.234 17.7258 149.507 17.8248 149.736V149.861H16.317C16.244 149.695 16.1867 149.473 16.1451 149.197C16.1034 148.916 16.0826 148.656 16.0826 148.416ZM16.3326 144.736L16.3482 145.752H14.8873C14.4758 145.752 14.1086 145.786 13.7857 145.854C13.4628 145.916 13.192 146.012 12.9732 146.143C12.7545 146.273 12.5878 146.437 12.4732 146.635C12.3586 146.828 12.3013 147.054 12.3013 147.315C12.3013 147.58 12.3612 147.822 12.481 148.041C12.6008 148.26 12.7805 148.434 13.0201 148.565C13.2649 148.69 13.5644 148.752 13.9185 148.752C14.3612 148.752 14.7519 148.658 15.0904 148.471C15.4289 148.283 15.6972 148.054 15.8951 147.783C16.0982 147.512 16.2076 147.249 16.2232 146.994L16.8404 147.69C16.8039 147.908 16.705 148.15 16.5435 148.416C16.3821 148.682 16.1659 148.937 15.8951 149.182C15.6295 149.421 15.3117 149.622 14.942 149.783C14.5774 149.94 14.1659 150.018 13.7076 150.018C13.1347 150.018 12.6321 149.906 12.1998 149.682C11.7727 149.458 11.4394 149.158 11.1998 148.783C10.9654 148.403 10.8482 147.979 10.8482 147.51C10.8482 147.057 10.9367 146.658 11.1138 146.315C11.2909 145.966 11.5461 145.676 11.8795 145.447C12.2128 145.213 12.6138 145.036 13.0826 144.916C13.5513 144.796 14.0748 144.736 14.6529 144.736H16.3326ZM22.2466 148.557L24.5591 141.408H26.0357L22.9966 149.861H22.0279L22.2466 148.557ZM20.317 141.408L22.6998 148.596L22.8638 149.861H21.8951L18.8326 141.408H20.317ZM32.2857 148.416V144.065C32.2857 143.731 32.218 143.442 32.0826 143.197C31.9524 142.947 31.7545 142.755 31.4888 142.619C31.2232 142.484 30.8951 142.416 30.5045 142.416C30.1399 142.416 29.8196 142.479 29.5435 142.604C29.2727 142.729 29.0591 142.893 28.9029 143.096C28.7519 143.299 28.6763 143.518 28.6763 143.752H27.231C27.231 143.45 27.3091 143.15 27.4654 142.854C27.6216 142.557 27.8456 142.288 28.1373 142.049C28.4341 141.804 28.7883 141.611 29.1998 141.471C29.6164 141.325 30.08 141.252 30.5904 141.252C31.205 141.252 31.7466 141.356 32.2154 141.565C32.6894 141.773 33.0591 142.088 33.3248 142.51C33.5956 142.926 33.731 143.45 33.731 144.08V148.018C33.731 148.299 33.7545 148.598 33.8013 148.916C33.8534 149.234 33.9289 149.507 34.0279 149.736V149.861H32.5201C32.4472 149.695 32.3899 149.473 32.3482 149.197C32.3065 148.916 32.2857 148.656 32.2857 148.416ZM32.5357 144.736L32.5513 145.752H31.0904C30.6789 145.752 30.3117 145.786 29.9888 145.854C29.6659 145.916 29.3951 146.012 29.1763 146.143C28.9576 146.273 28.7909 146.437 28.6763 146.635C28.5617 146.828 28.5045 147.054 28.5045 147.315C28.5045 147.58 28.5644 147.822 28.6841 148.041C28.8039 148.26 28.9836 148.434 29.2232 148.565C29.468 148.69 29.7675 148.752 30.1216 148.752C30.5644 148.752 30.955 148.658 31.2935 148.471C31.6321 148.283 31.9003 148.054 32.0982 147.783C32.3013 147.512 32.4107 147.249 32.4263 146.994L33.0435 147.69C33.0071 147.908 32.9081 148.15 32.7466 148.416C32.5852 148.682 32.369 148.937 32.0982 149.182C31.8326 149.421 31.5149 149.622 31.1451 149.783C30.7805 149.94 30.369 150.018 29.9107 150.018C29.3378 150.018 28.8352 149.906 28.4029 149.682C27.9758 149.458 27.6425 149.158 27.4029 148.783C27.1685 148.403 27.0513 147.979 27.0513 147.51C27.0513 147.057 27.1399 146.658 27.317 146.315C27.494 145.966 27.7492 145.676 28.0826 145.447C28.4159 145.213 28.817 145.036 29.2857 144.916C29.7545 144.796 30.2779 144.736 30.856 144.736H32.5357ZM46.2545 146.986C46.2545 146.721 46.2128 146.486 46.1295 146.283C46.0513 146.075 45.9107 145.887 45.7076 145.721C45.5097 145.554 45.2336 145.395 44.8795 145.244C44.5305 145.093 44.0878 144.94 43.5513 144.783C42.9888 144.617 42.481 144.432 42.0279 144.229C41.5748 144.02 41.1867 143.783 40.8638 143.518C40.5409 143.252 40.2935 142.947 40.1216 142.604C39.9498 142.26 39.8638 141.867 39.8638 141.424C39.8638 140.981 39.955 140.572 40.1373 140.197C40.3196 139.822 40.58 139.497 40.9185 139.221C41.2623 138.94 41.6711 138.721 42.1451 138.565C42.619 138.408 43.1477 138.33 43.731 138.33C44.5852 138.33 45.3091 138.494 45.9029 138.822C46.5019 139.145 46.9576 139.57 47.2701 140.096C47.5826 140.617 47.7388 141.174 47.7388 141.768H46.2388C46.2388 141.341 46.1477 140.963 45.9654 140.635C45.7831 140.301 45.5071 140.041 45.1373 139.854C44.7675 139.661 44.2987 139.565 43.731 139.565C43.1946 139.565 42.7519 139.645 42.4029 139.807C42.0539 139.968 41.7935 140.187 41.6216 140.463C41.455 140.739 41.3716 141.054 41.3716 141.408C41.3716 141.648 41.4211 141.867 41.5201 142.065C41.6242 142.257 41.7831 142.437 41.9966 142.604C42.2154 142.77 42.4914 142.924 42.8248 143.065C43.1633 143.205 43.567 143.341 44.0357 143.471C44.6815 143.653 45.2388 143.856 45.7076 144.08C46.1763 144.304 46.5617 144.557 46.8638 144.838C47.1711 145.114 47.3977 145.429 47.5435 145.783C47.6946 146.132 47.7701 146.528 47.7701 146.971C47.7701 147.434 47.6763 147.854 47.4888 148.229C47.3013 148.604 47.0331 148.924 46.6841 149.19C46.3352 149.455 45.9159 149.661 45.4263 149.807C44.942 149.947 44.4003 150.018 43.8013 150.018C43.2753 150.018 42.7571 149.945 42.2466 149.799C41.7414 149.653 41.2805 149.434 40.8638 149.143C40.4524 148.851 40.1216 148.492 39.8716 148.065C39.6269 147.632 39.5045 147.132 39.5045 146.565H41.0045C41.0045 146.955 41.08 147.291 41.231 147.572C41.3821 147.848 41.5878 148.078 41.8482 148.26C42.1138 148.442 42.4133 148.578 42.7466 148.666C43.0852 148.749 43.4367 148.791 43.8013 148.791C44.3274 148.791 44.7727 148.718 45.1373 148.572C45.5019 148.426 45.7779 148.218 45.9654 147.947C46.1581 147.676 46.2545 147.356 46.2545 146.986ZM52.856 148.83C53.1998 148.83 53.5175 148.76 53.8091 148.619C54.1008 148.479 54.3404 148.286 54.5279 148.041C54.7154 147.791 54.8222 147.507 54.8482 147.19H56.2232C56.1972 147.69 56.0279 148.156 55.7154 148.588C55.4081 149.015 55.0045 149.361 54.5045 149.627C54.0045 149.887 53.455 150.018 52.856 150.018C52.2206 150.018 51.6659 149.906 51.192 149.682C50.7232 149.458 50.3326 149.15 50.0201 148.76C49.7128 148.369 49.481 147.921 49.3248 147.416C49.1737 146.906 49.0982 146.367 49.0982 145.799V145.471C49.0982 144.903 49.1737 144.367 49.3248 143.861C49.481 143.351 49.7128 142.9 50.0201 142.51C50.3326 142.119 50.7232 141.812 51.192 141.588C51.6659 141.364 52.2206 141.252 52.856 141.252C53.5175 141.252 54.0956 141.387 54.5904 141.658C55.0852 141.924 55.4732 142.288 55.7545 142.752C56.0409 143.21 56.1972 143.731 56.2232 144.315H54.8482C54.8222 143.966 54.7232 143.65 54.5513 143.369C54.3847 143.088 54.1555 142.864 53.8638 142.697C53.5774 142.525 53.2414 142.44 52.856 142.44C52.4133 142.44 52.0409 142.528 51.7388 142.705C51.442 142.877 51.205 143.111 51.0279 143.408C50.856 143.7 50.731 144.025 50.6529 144.385C50.58 144.739 50.5435 145.101 50.5435 145.471V145.799C50.5435 146.169 50.58 146.533 50.6529 146.893C50.7258 147.252 50.8482 147.578 51.0201 147.869C51.1972 148.161 51.4341 148.395 51.731 148.572C52.0331 148.744 52.4081 148.83 52.856 148.83ZM59.2935 142.736V149.861H57.8482V141.408H59.2545L59.2935 142.736ZM61.9341 141.361L61.9263 142.705C61.8065 142.679 61.692 142.663 61.5826 142.658C61.4784 142.648 61.3586 142.643 61.2232 142.643C60.8899 142.643 60.5956 142.695 60.3404 142.799C60.0852 142.903 59.869 143.049 59.692 143.236C59.5149 143.424 59.3742 143.648 59.2701 143.908C59.1711 144.163 59.106 144.445 59.0748 144.752L58.6685 144.986C58.6685 144.476 58.718 143.997 58.817 143.549C58.9211 143.101 59.08 142.705 59.2935 142.361C59.5071 142.012 59.7779 141.742 60.106 141.549C60.4394 141.351 60.8352 141.252 61.2935 141.252C61.3977 141.252 61.5175 141.265 61.6529 141.291C61.7883 141.312 61.8821 141.335 61.9341 141.361ZM64.8404 141.408V149.861H63.3873V141.408H64.8404ZM63.2779 139.166C63.2779 138.932 63.3482 138.734 63.4888 138.572C63.6347 138.411 63.8482 138.33 64.1295 138.33C64.4055 138.33 64.6164 138.411 64.7623 138.572C64.9133 138.734 64.9888 138.932 64.9888 139.166C64.9888 139.39 64.9133 139.583 64.7623 139.744C64.6164 139.9 64.4055 139.979 64.1295 139.979C63.8482 139.979 63.6347 139.9 63.4888 139.744C63.3482 139.583 63.2779 139.39 63.2779 139.166ZM68.606 143.033V153.111H67.1529V141.408H68.481L68.606 143.033ZM74.3013 145.565V145.729C74.3013 146.343 74.2284 146.913 74.0826 147.44C73.9367 147.96 73.7232 148.413 73.442 148.799C73.1659 149.184 72.8248 149.484 72.4185 149.697C72.0123 149.911 71.5461 150.018 71.0201 150.018C70.4836 150.018 70.0097 149.929 69.5982 149.752C69.1867 149.575 68.8378 149.317 68.5513 148.979C68.2649 148.64 68.0357 148.234 67.8638 147.76C67.6972 147.286 67.5826 146.752 67.5201 146.158V145.283C67.5826 144.658 67.6998 144.098 67.8716 143.604C68.0435 143.109 68.2701 142.687 68.5513 142.338C68.8378 141.984 69.1841 141.716 69.5904 141.533C69.9966 141.346 70.4654 141.252 70.9966 141.252C71.5279 141.252 71.9992 141.356 72.4107 141.565C72.8222 141.768 73.1685 142.059 73.4498 142.44C73.731 142.82 73.942 143.275 74.0826 143.807C74.2284 144.333 74.3013 144.919 74.3013 145.565ZM72.8482 145.729V145.565C72.8482 145.143 72.8039 144.747 72.7154 144.377C72.6269 144.002 72.4888 143.674 72.3013 143.393C72.119 143.106 71.8847 142.882 71.5982 142.721C71.3117 142.554 70.9706 142.471 70.5748 142.471C70.2102 142.471 69.8925 142.533 69.6216 142.658C69.356 142.783 69.1295 142.953 68.942 143.166C68.7545 143.374 68.6008 143.614 68.481 143.885C68.3664 144.15 68.2805 144.426 68.2232 144.713V146.736C68.3274 147.101 68.4732 147.445 68.6607 147.768C68.8482 148.085 69.0982 148.343 69.4107 148.541C69.7232 148.734 70.1164 148.83 70.5904 148.83C70.981 148.83 71.317 148.749 71.5982 148.588C71.8847 148.421 72.119 148.195 72.3013 147.908C72.4888 147.622 72.6269 147.294 72.7154 146.924C72.8039 146.549 72.8482 146.15 72.8482 145.729ZM79.6841 141.408V142.518H75.1138V141.408H79.6841ZM76.6607 139.354H78.106V147.768C78.106 148.054 78.1503 148.27 78.2388 148.416C78.3274 148.562 78.442 148.658 78.5826 148.705C78.7232 148.752 78.8742 148.775 79.0357 148.775C79.1555 148.775 79.2805 148.765 79.4107 148.744C79.5461 148.718 79.6477 148.697 79.7154 148.682L79.7232 149.861C79.6086 149.898 79.4576 149.932 79.2701 149.963C79.0878 149.999 78.8664 150.018 78.606 150.018C78.2519 150.018 77.9263 149.947 77.6295 149.807C77.3326 149.666 77.0956 149.432 76.9185 149.104C76.7466 148.77 76.6607 148.322 76.6607 147.76V139.354Z" fill="#727272"/>
</svg>
