<svg width="74" height="67" viewBox="0 0 74 67" fill="none" xmlns="http://www.w3.org/2000/svg">
<path d="M72.5788 30.2373L53.2104 23.5495L45.978 1.43745C45.6994 0.584727 44.8527 0 43.8973 0C42.9418 0 42.0951 0.584727 41.8166 1.43745L34.5863 23.5495L15.2157 30.2373C14.3604 30.5337 13.7945 31.291 13.7945 32.1417C13.7945 32.9904 14.3604 33.7518 15.2157 34.0462L34.5754 40.7319L41.81 63.518C42.0843 64.3789 42.9331 64.9697 43.8973 64.9697C44.8593 64.9697 45.7103 64.3789 45.9845 63.516L53.2191 40.7299L72.581 34.0441C73.432 33.7518 74 32.9924 74 32.1417C74 31.2931 73.432 30.5337 72.5788 30.2373Z" fill="#FFAC33"/>
<path d="M29.0494 52.5727L24.013 50.8347L22.0542 44.1347C21.7974 43.2495 20.9376 42.6364 19.9561 42.6364C18.9745 42.6364 18.1148 43.2495 17.8558 44.1327L15.8969 50.8327L10.8628 52.5706C10.0074 52.865 9.44153 53.6264 9.44153 54.4751C9.44153 55.3237 10.0074 56.0851 10.8628 56.3795L15.8708 58.1113L17.8449 65.4651C18.0886 66.3665 18.9571 67 19.9561 67C20.9551 67 21.8235 66.3665 22.0672 65.4631L24.0413 58.1093L29.0494 56.3775C29.9047 56.0851 30.4706 55.3237 30.4706 54.4751C30.4706 53.6264 29.9047 52.865 29.0494 52.5727ZM19.6078 8.5902L14.4626 6.81369L12.5561 2.01202C12.2405 1.21411 11.4265 0.686234 10.5145 0.686234C9.60477 0.686234 8.79077 1.21411 8.473 2.01202L6.56859 6.81369L1.42124 8.5902C0.565882 8.88663 0 9.64596 0 10.4946C0 11.3433 0.565882 12.1047 1.42124 12.3991L6.56859 14.1756L8.473 18.9772C8.79077 19.7751 9.60477 20.303 10.5145 20.303C11.4243 20.303 12.2383 19.7751 12.5561 18.9772L14.4605 14.1756L19.6078 12.3991C20.4632 12.1026 21.0291 11.3433 21.0291 10.4946C21.0291 9.64596 20.4632 8.88663 19.6078 8.5902Z" fill="#FFCC4D"/>
</svg>
